<svg width="26" height="26" viewBox="0 0 26 26" fill="none" xmlns="http://www.w3.org/2000/svg">
<g id="Iconly/Bulk/Buy">
<g id="Buy">
<path id="Combined Shape" opacity="0.4" fill-rule="evenodd" clip-rule="evenodd" d="M6.4032 22.3041C6.4032 21.3941 7.13986 20.6575 8.04987 20.6575C8.94903 20.6575 9.6857 21.3941 9.6857 22.3041C9.6857 23.2033 8.94903 23.94 8.04987 23.94C7.13986 23.94 6.4032 23.2033 6.4032 22.3041ZM18.5907 22.3041C18.5907 21.3941 19.3274 20.6575 20.2374 20.6575C21.1365 20.6575 21.8732 21.3941 21.8732 22.3041C21.8732 23.2033 21.1365 23.94 20.2374 23.94C19.3274 23.94 18.5907 23.2033 18.5907 22.3041Z" fill="#1E1C1A"/>
<path id="Fill 7" fill-rule="evenodd" clip-rule="evenodd" d="M21.8734 6.87812C22.5342 6.87812 22.9676 7.10562 23.4009 7.60395C23.8342 8.10228 23.91 8.81728 23.8125 9.4662L22.7834 16.5729C22.5884 17.939 21.4184 18.9454 20.0426 18.9454H8.22338C6.78255 18.9454 5.59089 17.8404 5.47172 16.4115L4.47505 4.60203L2.83922 4.32037C2.40589 4.24453 2.10255 3.82203 2.17839 3.3887C2.25422 2.94453 2.67672 2.65203 3.12089 2.71703L5.70463 3.10703C6.07297 3.17312 6.3438 3.47537 6.3763 3.8437L6.58214 6.27037C6.61463 6.61812 6.8963 6.87812 7.24297 6.87812H21.8734ZM15.3084 12.5103H18.3092C18.7642 12.5103 19.1217 12.1419 19.1217 11.6978C19.1217 11.2428 18.7642 10.8853 18.3092 10.8853H15.3084C14.8534 10.8853 14.4959 11.2428 14.4959 11.6978C14.4959 12.1419 14.8534 12.5103 15.3084 12.5103Z" fill="#1E1C1A"/>
</g>
</g>
</svg>
